HIERARCHY
ROOT Hips
{
  OFFSET 1.44925e-005 102.336 -0.101585
  CHANNELS 6 Xposition Yposition Zposition Zrotation Xrotation Yrotation
  JOINT LeftUpLeg
  {
    OFFSET 8.9458 -8.66707 0.101652
    CHANNELS 3 Zrotation Xrotation Yrotation
    JOINT LeftLeg
    {
      OFFSET 0 -44.4227 1.3727
      CHANNELS 3 Zrotation Xrotation Yrotation
      JOINT LeftFoot
      {
        OFFSET -0.253549 -42.0924 -1.46059
        CHANNELS 3 Zrotation Xrotation Yrotation
        JOINT LeftToes
        {
          OFFSET -0.04 -4.41509 8.4991
          CHANNELS 3 Zrotation Xrotation Yrotation
          End Site
          {
            OFFSET 0.08 -0.047448 9.77979
          }
        }
      }
    }
  }
  JOINT Spine
  {
    OFFSET 0 11.8905 0
    CHANNELS 3 Zrotation Xrotation Yrotation
    JOINT Spine1
    {
      OFFSET 0 25.6574 0.127663
      CHANNELS 3 Zrotation Xrotation Yrotation
      JOINT RightShoulder
      {
        OFFSET -8.99 -0.362252 -0.22
        CHANNELS 3 Zrotation Xrotation Yrotation
        JOINT RightArm
        {
          OFFSET -10.2827 -0.00338 0.322123
          CHANNELS 3 Zrotation Xrotation Yrotation
          JOINT RightForeArm
          {
            OFFSET -26.364 0.099144 -1.42434
            CHANNELS 3 Zrotation Xrotation Yrotation
            JOINT RightHand
            {
              OFFSET -22.0324 0.085362 1.02216
              CHANNELS 3 Zrotation Xrotation Yrotation
              End Site
              {
                OFFSET -13.3284 -0.6 1.50291
              }
            }
          }
        }
      }
      JOINT LeftShoulder1
      {
        OFFSET 8.99 -0.362252 -0.22
        CHANNELS 3 Zrotation Xrotation Yrotation
        JOINT LeftArm
        {
          OFFSET 10.2827 -0.00337999 0.322123
          CHANNELS 3 Zrotation Xrotation Yrotation
          JOINT LeftForeArm
          {
            OFFSET 26.2597 0.099144 -1.42434
            CHANNELS 3 Zrotation Xrotation Yrotation
            JOINT LeftHand
            {
              OFFSET 22.0902 0.085362 1.02216
              CHANNELS 3 Zrotation Xrotation Yrotation
              End Site
              {
                OFFSET 13.419 -0.6 1.50291
              }
            }
          }
        }
      }
      JOINT Head
      {
        OFFSET 0 8.73416 0.011341
        CHANNELS 3 Zrotation Xrotation Yrotation
        End Site
        {
          OFFSET -0.29 12.7742 2.51395
        }
      }
    }
  }
  JOINT RightUpLeg
  {
    OFFSET -8.9458 -8.66707 0.101652
    CHANNELS 3 Zrotation Xrotation Yrotation
    JOINT RightLeg
    {
      OFFSET 0 -44.4227 1.3727
      CHANNELS 3 Zrotation Xrotation Yrotation
      JOINT RightFoot
      {
        OFFSET 0.253549 -42.0924 -1.46059
        CHANNELS 3 Zrotation Xrotation Yrotation
        JOINT RightToes
        {
          OFFSET 0.04 -4.41509 8.4991
          CHANNELS 3 Zrotation Xrotation Yrotation
          End Site
          {
            OFFSET -0.08 -0.137448 9.77979
          }
        }
      }
    }
  }
}
MOTION
Frames:	17
Frame Time:	0.0333333
191.625 102.96 5.52644 -2.93194 -0.197333 -90.2199 -2.16216 0.530006 0.752378 0.551478 9.86389 15.4239 -1.54817 -11.9207 0.00993713 -1.3145e-009 8.75242e-006 -1.47246e-008 0.275871 7.14037 0.0701686 -1.41339 -3.98851 0.348211 36.8417 1.71386 -0.0212063 41.5093 -15.03 2.04768 6.5993 34.583 11.3893 -11.6655 9.3297 0.618531 -44.1263 3.50497 -3.40095 -27.6591 -8.52267 3.14362 -4.08458 33.1865 -15.8915 5.82328 9.61819 -0.917488 -0.52018 -3.11509 -6.79567 -0.788327 -0.929805 -3.2926 -0.542548 12.1371 -8.5186 3.30096 -12.8407 -0.0511426 0.0462048 0.000530889 0.662642 
191.625 102.96 5.54612 -2.90942 -0.192521 -90.2245 -2.18153 0.498693 0.732773 0.56072 9.87452 15.4567 -1.55586 -11.9221 0.00993718 -1.3145e-009 8.75242e-006 -1.47246e-008 0.303345 7.12773 0.0482854 -1.47704 -4.024 0.334908 36.9588 1.71936 -0.0182232 41.4149 -15.0677 2.07811 6.6234 34.6586 11.339 -11.6374 9.32776 0.664762 -44.0985 3.50038 -3.39605 -27.5989 -8.60954 3.13436 -4.11728 33.2132 -15.8443 5.82328 9.61819 -0.917488 -0.700361 -3.49757 -6.65092 -0.803064 -0.954811 -3.29553 -0.540754 12.1336 -8.51014 3.31831 -12.8407 -0.0511426 0.0462048 0.000530889 0.662642 
191.62 102.96 5.58592 -2.91487 -0.185064 -90.2284 -2.20873 0.499244 0.711282 0.57549 9.89354 15.487 -1.54527 -11.9419 0.00993791 -1.3145e-009 8.75242e-006 -1.47246e-008 0.359766 7.15857 0.00518381 -1.57661 -4.11063 0.306222 37.1198 1.72873 -0.0101269 41.2946 -14.9876 2.09821 6.71809 34.4684 11.2781 -11.5852 9.32063 0.776831 -44.065 3.4913 -3.38317 -27.4855 -8.61708 3.18321 -4.15071 33.0285 -15.8455 5.82328 9.61819 -0.917488 -1.04115 -4.10263 -6.41506 -0.828578 -0.941121 -3.32058 -0.531453 12.1248 -8.48632 3.35258 -12.8418 -0.0511428 0.0462048 0.000530889 0.662642 
191.609 102.958 5.62439 -2.95469 -0.183474 -90.2174 -2.23331 0.545666 0.703339 0.577718 9.90222 15.4891 -1.51281 -11.9687 0.00993889 -1.3145e-009 8.75242e-006 -1.47246e-008 0.367555 7.22024 -0.0295991 -1.60385 -4.1779 0.275434 37.2028 1.73454 -0.00338152 41.2434 -14.8419 2.11381 6.8439 34.0478 11.2381 -11.5904 9.31545 0.830358 -44.012 3.48291 -3.37452 -27.4454 -8.5333 3.27015 -4.11855 32.7194 -15.9506 5.82328 9.61819 -0.917488 -1.24641 -4.49385 -5.8969 -0.863176 -0.891737 -3.37 -0.516786 12.1319 -8.44622 3.37732 -12.8505 -0.0510757 0.0462048 0.000530889 0.662642 
191.606 102.956 5.64759 -2.98401 -0.19166 -90.2077 -2.24917 0.57724 0.706953 0.562411 9.90559 15.4781 -1.48727 -11.984 0.00993946 -1.3145e-009 8.75242e-006 -1.47246e-008 0.298687 7.21405 -0.0298242 -1.53684 -4.11606 0.265425 37.2366 1.73707 -0.00197555 41.2192 -14.8052 2.19035 6.92757 33.8306 11.1895 -11.6865 9.30677 0.867332 -43.948 3.4773 -3.37296 -27.4956 -8.51172 3.27768 -4.02525 32.6315 -16.0713 5.82328 9.61819 -0.917488 -1.12377 -4.53512 -5.03465 -0.890273 -0.867891 -3.40241 -0.515962 12.1566 -8.4188 3.38677 -12.8693 -0.051067 0.0462048 0.000530889 0.662642 
191.616 102.955 5.65881 -2.98446 -0.192921 -90.2143 -2.25002 0.564414 0.715247 0.546809 9.91885 15.4744 -1.4837 -11.9885 0.00993962 -1.3145e-009 8.75242e-006 -1.47246e-008 0.202954 7.05872 0.0136329 -1.42599 -3.83826 0.294141 37.2573 1.73837 0.000367173 41.1932 -14.8849 2.3533 6.91625 34.0623 11.1451 -11.67 9.28119 1.1557 -43.9628 3.47588 -3.36796 -27.4981 -8.56544 3.11549 -3.96251 32.7936 -16.1008 5.82328 9.61819 -0.917488 -0.835203 -4.56568 -4.11543 -0.882645 -0.88182 -3.37471 -0.547006 12.1693 -8.43924 3.40577 -12.8701 -0.0514097 0.0462048 0.000530889 0.662642 
191.63 102.955 5.66771 -2.97625 -0.178603 -90.2225 -2.23993 0.539891 0.723459 0.546168 9.93309 15.4739 -1.48731 -11.9888 0.00993963 -1.3145e-009 8.75242e-006 -1.47246e-008 0.107448 6.83154 0.0723359 -1.29352 -3.45031 0.334528 37.2239 1.73848 0.00285344 41.2181 -14.9382 2.52745 6.81992 34.5242 11.1616 -11.3218 9.24852 1.74396 -44.0901 3.48047 -3.35812 -27.3928 -8.57423 2.87138 -3.98178 32.8977 -16.0578 5.82328 9.61819 -0.917488 -0.618576 -4.83966 -3.3622 -0.844285 -0.890883 -3.3037 -0.596045 12.1463 -8.49939 3.43926 -12.8417 -0.0520145 0.0462048 0.000530889 0.662642 
191.638 102.957 5.67834 -2.96479 -0.165219 -90.2084 -2.23266 0.529031 0.728576 0.550992 9.91712 15.46 -1.47865 -11.9757 0.00993915 -1.3145e-009 8.75242e-006 -1.47246e-008 -0.0137523 6.71053 0.0928515 -1.13615 -3.2272 0.327752 37.14 1.73744 0.005062 41.2981 -14.9299 2.61866 6.72678 34.8421 11.2116 -10.8133 9.24247 2.18005 -44.2022 3.4894 -3.35908 -27.3209 -8.55033 2.75689 -4.01031 32.8129 -16.0471 5.82328 9.61819 -0.917488 -0.52355 -4.97361 -2.67223 -0.815952 -0.883773 -3.25139 -0.62546 12.1002 -8.55621 3.46418 -12.8153 -0.0528007 0.0462048 0.000530889 0.662642 
191.641 102.963 5.69155 -2.93189 -0.163023 -90.186 -2.2323 0.518913 0.733022 0.540491 9.85621 15.4377 -1.45223 -11.9423 0.00993793 -1.3145e-009 8.75242e-006 -1.47246e-008 -0.143604 6.73505 0.0654177 -0.99644 -3.26926 0.271549 37.0769 1.73531 0.00663113 41.3663 -14.9859 2.62877 6.7298 34.8773 11.1897 -10.5917 9.27063 2.02083 -44.1868 3.49887 -3.37997 -27.3995 -8.64365 2.83793 -3.97596 32.7432 -16.0923 5.82328 9.61819 -0.917488 -0.513533 -4.78604 -2.0716 -0.821591 -0.89731 -3.24683 -0.620193 12.0578 -8.58489 3.47916 -12.8055 -0.0536845 0.0462048 0.000530889 0.662642 
191.642 102.969 5.70767 -2.88263 -0.161876 -90.1933 -2.22598 0.50268 0.748313 0.509801 9.77856 15.4279 -1.4159 -11.9104 0.00993676 -1.3145e-009 8.75242e-006 -1.47246e-008 -0.205239 6.7651 0.0494106 -0.931768 -3.36165 0.241475 37.0139 1.73183 0.00581845 41.4381 -15.1783 2.62143 6.80551 34.7647 11.0886 -10.7932 9.30318 1.48445 -44.1328 3.50783 -3.4056 -27.5238 -8.8482 2.94151 -3.92314 32.8367 -16.1146 5.82328 9.61819 -0.917488 -0.628918 -4.92806 -2.00928 -0.837992 -0.938829 -3.2585 -0.604174 12.0248 -8.59316 3.49855 -12.7805 -0.0545722 0.0462048 0.000530889 0.662642 
191.641 102.972 5.72261 -2.8483 -0.15027 -90.2263 -2.20683 0.491445 0.778832 0.474943 9.7338 15.4287 -1.38356 -11.9071 0.00993664 -1.3145e-009 8.75242e-006 -1.47246e-008 -0.183752 6.73136 0.0826248 -0.927518 -3.34072 0.275209 36.8673 1.72401 0.000246972 41.5818 -15.4196 2.60588 6.83261 34.7274 11.0267 -11.0643 9.31523 1.1581 -44.1915 3.51919 -3.41916 -27.5281 -8.92689 2.93866 -3.91007 32.936 -16.1023 5.82328 9.61819 -0.917488 -0.929835 -5.72444 -2.6395 -0.836994 -0.965217 -3.25204 -0.601394 11.9909 -8.59441 3.51232 -12.7399 -0.0553767 0.0462048 0.000530889 0.662642 
191.634 102.971 5.73101 -2.84116 -0.139883 -90.2327 -2.19124 0.484446 0.803218 0.457602 9.74118 15.4162 -1.35941 -11.9216 0.00993717 -1.3145e-009 8.75242e-006 -1.47246e-008 -0.158983 6.7309 0.113293 -0.925213 -3.32871 0.306044 36.7076 1.71554 -0.0060388 41.7246 -15.607 2.55165 6.75222 34.9023 11.062 -11.0537 9.31274 1.19506 -44.3194 3.53057 -3.42243 -27.4436 -8.76159 2.93048 -3.90167 32.8542 -16.1414 5.82328 9.61819 -0.917488 -1.23592 -6.50508 -3.16653 -0.827389 -0.954529 -3.23789 -0.605417 11.9625 -8.5953 3.51539 -12.7381 -0.0560229 0.0462048 0.000530889 0.662642 
191.628 102.969 5.73489 -2.84824 -0.136039 -90.1998 -2.19235 0.474941 0.800981 0.464553 9.77708 15.3906 -1.33591 -11.9289 0.00993743 -1.3145e-009 8.75242e-006 -1.47246e-008 -0.174976 6.78658 0.0888595 -0.918756 -3.39329 0.278271 36.7042 1.71194 -0.0133817 41.7211 -15.7126 2.49771 6.6546 35.1503 11.1133 -10.8349 9.32016 1.25437 -44.36 3.53591 -3.42605 -27.4133 -8.58005 3.00461 -3.88439 32.665 -16.2147 5.82328 9.61819 -0.917488 -1.25182 -6.67287 -2.81202 -0.826175 -0.933817 -3.23828 -0.609253 11.9596 -8.59548 3.52898 -12.7726 -0.0564236 0.0462048 0.000530889 0.662642 
191.622 102.968 5.74016 -2.86049 -0.127424 -90.189 -2.19119 0.466625 0.795763 0.473496 9.82492 15.3837 -1.32029 -11.9451 0.00993803 -1.3145e-009 8.75242e-006 -1.47246e-008 -0.179513 6.75199 0.0487135 -0.954378 -3.33857 0.244028 36.8359 1.70997 -0.0214065 41.6142 -15.71 2.52739 6.66804 35.1468 11.0961 -10.7295 9.33292 1.17566 -44.3005 3.53787 -3.4323 -27.4485 -8.6781 3.04431 -3.95201 32.5929 -16.1511 5.82328 9.61819 -0.917488 -1.11354 -6.60318 -2.16003 -0.821606 -0.927489 -3.2409 -0.611982 11.9812 -8.58899 3.53961 -12.7722 -0.0564761 0.0462048 0.000530889 0.662642 
191.613 102.968 5.74635 -2.8718 -0.109663 -90.2417 -2.16594 0.455388 0.826031 0.453648 9.89396 15.4054 -1.33094 -11.997 0.00993994 -1.3145e-009 8.75242e-006 -1.47246e-008 -0.142146 6.59908 0.0459208 -1.03567 -3.12493 0.258427 36.9089 1.70827 -0.0237818 41.5799 -15.5933 2.62254 6.77736 34.9171 11.028 -10.8502 9.31897 1.2576 -44.2607 3.53829 -3.43504 -27.4441 -9.01473 2.99036 -4.13805 32.6929 -15.904 5.82328 9.61819 -0.917488 -1.17097 -7.10944 -2.29357 -0.802102 -0.93226 -3.22502 -0.618205 12.0058 -8.55824 3.51214 -12.7476 -0.0560959 0.0462048 0.000530889 0.662642 
191.6 102.968 5.74991 -2.87107 -0.0982438 -90.3082 -2.1377 0.437566 0.871749 0.413523 9.95851 15.4293 -1.35106 -12.0493 0.00994187 -1.3145e-009 8.75242e-006 -1.47246e-008 -0.123594 6.55395 0.049875 -1.09327 -3.0962 0.272724 36.864 1.70689 -0.0156754 41.6323 -15.494 2.65616 6.82948 34.9869 10.9665 -10.9843 9.27299 1.7012 -44.2801 3.53775 -3.43465 -27.3836 -9.25413 3.03928 -4.29744 32.754 -15.699 5.82328 9.61819 -0.917488 -1.38639 -7.90187 -2.82439 -0.790418 -0.939998 -3.20949 -0.625318 12.025 -8.50983 3.49446 -12.783 -0.0552145 0.0462048 0.000530889 0.662642 
191.585 102.968 5.75316 -2.8623 -0.105821 -90.3276 -2.14325 0.439811 0.875671 0.398447 9.95624 15.4483 -1.34512 -12.0479 0.00994182 -1.3145e-009 8.75242e-006 -1.47246e-008 -0.169862 6.75161 0.0201892 -1.07255 -3.43471 0.234653 36.8149 1.70589 -0.00382281 41.6401 -15.5719 2.5694 6.74603 35.5733 10.9366 -10.9671 9.23439 2.15874 -44.2879 3.53677 -3.43974 -27.3665 -9.21151 3.30669 -4.30346 32.6038 -15.7256 5.82328 9.61819 -0.917488 -1.37365 -7.93672 -2.42993 -0.805415 -0.943009 -3.22282 -0.624739 12.0393 -8.47166 3.5525 -12.8401 -0.0537362 0.0462048 0.000530889 0.662642 
